<svg width="800" height="600" xmlns="http://www.w3.org/2000/svg">
        <defs>
            <style>
                .title { font: bold 16px Arial; text-anchor: middle; }
                .axis-label { font: 12px Arial; text-anchor: middle; }
                .tick-label { font: 10px Arial; text-anchor: middle; }
                .grid { stroke: #e0e0e0; stroke-width: 1; }
                .axis { stroke: black; stroke-width: 2; }
                .nyquist-line { stroke: blue; stroke-width: 2; fill: none; }
                .critical-point { stroke: red; stroke-width: 3; fill: red; }
                .unit-circle { stroke: gray; stroke-width: 1; stroke-dasharray: 5,5; fill: none; }
            </style>
        </defs>

        <!-- Title -->
        <text x="400" y="30" class="title">Nyquist線図 - 複素平面軌跡</text>

        <g transform="translate(400, 300)">
            <!-- Grid lines -->
        <line x1="-220.0" y1="-220" x2="-220.0" y2="220" class="grid"/>
<text x="-220.0" y="235" class="tick-label">-1.02</text>
<line x1="-220" y1="220.0" x2="220" y2="220.0" class="grid"/>
<text x="-240" y="223.0" class="tick-label">-1.02</text>
<line x1="-176.0" y1="-220" x2="-176.0" y2="220" class="grid"/>
<text x="-176.0" y="235" class="tick-label">-0.82</text>
<line x1="-220" y1="176.0" x2="220" y2="176.0" class="grid"/>
<text x="-240" y="179.0" class="tick-label">-0.82</text>
<line x1="-132.0" y1="-220" x2="-132.0" y2="220" class="grid"/>
<text x="-132.0" y="235" class="tick-label">-0.61</text>
<line x1="-220" y1="132.0" x2="220" y2="132.0" class="grid"/>
<text x="-240" y="135.0" class="tick-label">-0.61</text>
<line x1="-88.0" y1="-220" x2="-88.0" y2="220" class="grid"/>
<text x="-88.0" y="235" class="tick-label">-0.41</text>
<line x1="-220" y1="88.0" x2="220" y2="88.0" class="grid"/>
<text x="-240" y="91.0" class="tick-label">-0.41</text>
<line x1="-44.00000000000003" y1="-220" x2="-44.00000000000003" y2="220" class="grid"/>
<text x="-44.00000000000003" y="235" class="tick-label">-0.20</text>
<line x1="-220" y1="44.00000000000003" x2="220" y2="44.00000000000003" class="grid"/>
<text x="-240" y="47.00000000000003" class="tick-label">-0.20</text>
<line x1="0.0" y1="-220" x2="0.0" y2="220" class="grid"/>
<line x1="-220" y1="-0.0" x2="220" y2="-0.0" class="grid"/>
<line x1="44.0" y1="-220" x2="44.0" y2="220" class="grid"/>
<text x="44.0" y="235" class="tick-label">0.20</text>
<line x1="-220" y1="-44.0" x2="220" y2="-44.0" class="grid"/>
<text x="-240" y="-41.0" class="tick-label">0.20</text>
<line x1="88.00000000000006" y1="-220" x2="88.00000000000006" y2="220" class="grid"/>
<text x="88.00000000000006" y="235" class="tick-label">0.41</text>
<line x1="-220" y1="-88.00000000000006" x2="220" y2="-88.00000000000006" class="grid"/>
<text x="-240" y="-85.00000000000006" class="tick-label">0.41</text>
<line x1="131.99999999999994" y1="-220" x2="131.99999999999994" y2="220" class="grid"/>
<text x="131.99999999999994" y="235" class="tick-label">0.61</text>
<line x1="-220" y1="-131.99999999999994" x2="220" y2="-131.99999999999994" class="grid"/>
<text x="-240" y="-128.99999999999994" class="tick-label">0.61</text>
<line x1="176.0" y1="-220" x2="176.0" y2="220" class="grid"/>
<text x="176.0" y="235" class="tick-label">0.82</text>
<line x1="-220" y1="-176.0" x2="220" y2="-176.0" class="grid"/>
<text x="-240" y="-173.0" class="tick-label">0.82</text>
<line x1="220.0" y1="-220" x2="220.0" y2="220" class="grid"/>
<text x="220.0" y="235" class="tick-label">1.02</text>
<line x1="-220" y1="-220.0" x2="220" y2="-220.0" class="grid"/>
<text x="-240" y="-217.0" class="tick-label">1.02</text>

            <line x1="-220" y1="0" x2="220" y2="0" class="axis"/>
            <line x1="0" y1="-220" x2="0" y2="220" class="axis"/>

            <!-- Unit circle -->
            <circle cx="0" cy="0" r="110" class="unit-circle"/>

            <!-- Critical point (-1, 0) -->
            <circle cx="-215.71007853149086" cy="0" r="5" class="critical-point"/>
            <text x="-215.71007853149086" y="-10" class="tick-label" fill="red">(-1,0)</text>
        <path d="M183.33333333333337,2.211751503600709 L183.3325725126124,2.2529475432062895 L183.33178308560957,2.294910644423993 L183.33096397692174,2.3376550752621768 L183.33011407073133,2.3811953682997853 L183.32923220928797,2.425546325545156 L183.32831719133407,2.4707230233814528 L183.32736777047091,2.51674081759964 L183.3263826534636,2.5636153485214663 L183.3253604984825,2.6113625462124332 L183.32429991327854,2.6599986357876446 L183.32319945329021,2.7095401428105106 L183.3220576196802,2.760003898787147 L183.32087285729716,2.811407046756841 L183.31964355256247,2.863767046980769 L183.31836803127675,2.917101682729907 L183.3170445563452,2.971429066173897 L183.31567132541642,3.0267676443725406 L183.3142464684346,3.08313620537092 L183.31276804509815,3.1405538844000205 L183.31123404222444,3.1990401701844746 L183.30964237101585,3.2586149113579665 L183.3079908642227,3.319298322989482 L183.30627727320064,3.3811109932204033 L183.30449926485812,3.4440738900144936 L183.30265441848906,3.508208368022423 L183.30074022248755,3.5735361755622534 L183.29875407093948,3.6400794617170504 L183.29669326008735,3.7078607835512116 L183.29455498466166,3.776903113447645 L183.29233633407654,3.8472298465659946 L183.29003428848318,3.9188648084243596 L183.2876457146744,3.9918322626054987 L183.28516736183838,4.066156918588575 L183.28259585715267,4.141863939708884 L183.2799277012137,4.218978951245333 L183.2771592632967,4.2975280486381 L183.27428677643803,4.377537805837534 L183.27130633233435,4.459035283784914 L183.26821387605185,4.5420480390268665 L183.2650052005389,4.6266041324642515 L183.26167594093283,4.712732138236419 L183.25822156865667,4.800461152742201 L183.2546373852946,4.8898208037979884 L183.25091851624063,4.980841259934323 L183.24705990411053,5.073553239831369 L183.24305630190946,5.1679880218936205 L183.23890226594511,5.264177453965573 L183.234592148478,5.3621539631870405 L183.23012009009932,5.461950565990264 L183.22548001182565,5.563600878237679 L183.22066560690035,5.66713912550108 L183.21567033229184,5.772600153481932 L183.21048739987634,5.880019438572873 L183.20510976729446,5.989433098559431 L183.19953012847014,6.100877903462049 L183.19374090377778,6.214391286517525 L183.18773422984725,6.330011355298495 L183.18150194899238,6.447776902970446 L183.1750355982487,6.567727419684246 L183.16832639800793,6.689903104103337 L183.16136524023312,6.814344875062716 L183.15414267624033,6.941094383358347 L183.1466489040307,7.070194023664158 L183.13887375515765,7.201686946573943 L183.13080668111053,7.335617070764755 L183.1224367392009,7.472029095278771 L183.11375257792935,7.610968511919509 L183.10474242181795,7.752481617757695 L183.09539405568802,7.896615527742881 L183.08569480836297,8.043418187414915 L183.07563153577655,8.192938385709738 L183.06519060346608,8.345225767853663 L183.05435786842725,8.500330848338677 L183.04311866031009,8.658305023972133 L183.03145776193202,8.819200586992025 L183.01935938908383,8.983070738240286 L183.00680716960488,9.149969600383315 L182.99378412170165,9.319952231171044 L182.98027263148344,9.493074636722469 L182.96625442968843,9.669393784826724 L182.95171056757306,9.84896761824649 L182.93662139193322,10.031855068010543 L182.92096651923288,10.218116066680409 L182.9047248088042,10.407811561576068 L182.88787433509174,10.60100352794342 L182.8703923589071,10.797754982045632 L182.85225529766103,10.998129994159711 L182.83343869453904,11.202193701456764 L182.81391718658563,11.410012320745466 L182.79366447166137,11.621653161053416 L182.77265327423538,11.837184636023608 L182.75085530997586,12.056676276097619 L182.72824124909977,12.280198740458218 L182.70478067844158,12.50782382870085 L182.68044206220026,12.739624492201983 L182.65519270132353,12.975674845150252 L182.62899869148458,13.21605017520389 L182.6018248796105,13.460826953736273 L182.57363481891446,13.710082845628477 L182.54439072238847,13.963896718565223 L182.51405341470866,14.222348651788366 L182.48258228250614,14.485519944259238 L182.44993522295454,14.753493122177531 L182.41606859062625,15.026351945802531 L182.38093714256473,15.304181415517832 L182.34449398152498,15.587067777078857 L182.3066904973279,15.875098525977336 L182.26747630627875,16.16836241085474 L182.22679918859484,16.466949435890882 L182.18460502378952,16.770950862091837 L182.14083772395992,17.080459207395137 L182.0954391649223,17.395568245507036 L182.04834911514257,17.71637300338074 L181.99950516240563,18.042969757240684 L181.94884263817028,18.37545602705137 L181.89629453955484,18.71393056932544 L181.8417914489002,19.05849336815791 L181.78526145085482,19.40924562436996 L181.72663004693163,19.766289742636758 L181.66582006748246,20.12972931646968 L181.60275158104076,20.499669110915022 L181.53734180098263,20.876215042824583 L181.4695049894582,21.259474158546254 L181.39915235854835,21.64955460887529 L181.32619196860304,22.046565621097784 L181.25052862371956,22.450617467951645 L181.17206376432569,22.861821433319506 L181.09069535682943,23.280289774460243 L181.00631778030947,23.706135680576978 L180.91882171021734,24.13947322750846 L180.8280939990716,24.5804173283216 L180.7340175541285,25.029083679573432 L180.6364712120207,25.485588702998058 L180.53532961035927,25.950049482365728 L180.43046305630753,26.422583695248278 L180.32173739213658,26.903309539414522 L180.20901385778717,27.39234565356668 L180.09214895046966,27.889811032117933 L179.9709942813447,28.39582493369761 L179.84539642934124,28.910506783059105 L179.71519679217744,29.433976066052168 L179.5802314346691,29.966352217308497 L179.44033093442107,30.50775450027669 L179.29532022501655,31.058301879228992 L179.14501843683462,31.618112882849715 L178.98923873564826,32.18730545900158 L178.82778815917328,32.76599682025278 L178.66046745176283,33.35430327973572 L178.48707089746506,33.9523400768943 L178.30738615168752,34.56022119266498 L178.12119407173998,35.17805915362422 L177.92826854655584,35.805964824624056 L177.7283763259249,36.444047189425675 L177.52127684960362,37.09241311883119 L177.30672207670284,37.7511671258045 L177.08445631579627,38.42041110706373 L176.85421605622622,39.10024407062019 L176.61572980113164,39.79076184873392 L176.36871790276746,40.49205679575164 L176.11289240073023,41.20421747028939 L175.84795686375787,41.92732830122421 L175.57360623582395,42.66146923695891 L175.289526687302,43.4067153774308 L174.99539547203602,44.16313658834011 L174.69088079121184,44.93079709708792 L174.37564166499175,45.70975506992434 L174.0493278129386,46.5000621698278 L173.71157954432658,47.30176309465793 L173.36202765950895,48.11489509515138 L173.00029336358443,48.93948747236223 L172.62598819368515,49.77556105418543 L172.2387139612852,50.62312765064664 L171.83806271100923,51.4821894876892 L171.42361669750693,52.35273861924853 L170.9949483820401,53.234756317466065 L170.55162045051384,54.12821244096841 L170.09318585477195,55.03306478121729 L169.6191878790595,55.94925838702514 L169.12916023364153,56.87672486743108 L168.62262717765248,57.81538167324044 L168.0991036733305,58.765131357650205 L167.5580955738734,59.72586081651531 L166.99909984722615,60.697440508949995 L166.42160483818668,61.67972365911589 L165.82509057127584,62.672545440212275 L165.2090290968838,63.67572214186512 L164.5728848832543,64.6890503223033 L163.91611525690928,65.71230594691528 L163.23817089415144,66.74524351499926 L162.53849636629866,67.78759517675206 L161.81653074131316,68.83906984278588 L161.0717082444753,69.89935228872253 L160.30345898072676,70.96810225768448 L159.51120972125852,72.04495356378447 L158.69438475685382,73.12951320001034 L157.85240682040217,74.221360454206 L156.98469808088254,75.32004603716109 L156.09068121097175,76.42509122714489 L155.16978053025707,77.53598703554317 L154.22142322582454,78.65219339859019 L153.24504065175802,79.77313840051562 L152.24006970880168,80.89821753375878 L151.2059543051305,82.02679300222579 L150.14214689881663,83.15819307388486 L149.04811012218568,84.29171148929944 L147.92331848782266,85.42660693299038 L146.7672601755081,86.56210257478836 L145.57943889884262,87.69738568858571 L144.3593758497537,88.83160735611091 L143.10661171847073,89.9638822635317 L141.82070878590537,91.09328859883502 L140.50125308468165,92.21886805802401 L139.14785662433803,93.33962596821792 L137.76015967545231,94.45453153572254 L136.3378331066561,95.5625182270609 L134.8805807676752,96.66248429080295 L133.38814191069588,97.75329342780707 L131.86029364149795,98.83377561717948 L130.2968533909297,99.90272810486329 L128.69768139643344,100.95891656128381 L127.06268318247822,102.0010764138974 L125.39181202791406,103.02791435981239 L123.68507140745731,104.03811006287182 L121.94251739374897,105.03031803870911 L120.164261005713,106.00316973030382 L118.3504704882921,106.95527577548606 L116.50137350806813,107.88522846665683 L114.61725924879272,108.79160440172224 L112.6984803904773,109.67296732388122 L110.74545495543202,110.52787114646942 L108.75866800451251,111.35486315755871 L106.73867316684203,112.15248739744688 L104.68609398643866,112.91928820056837 L102.6016250694995,113.65381389171925 L100.48603301658397,114.35462062484372 L98.34015712460439,115.0202763509868 L96.16490984437814,115.64936490040198 L93.96127698052305,116.24049016223304 L91.73031762168114,116.79228034368535 L89.47316379044702,117.30339228919057 L87.19101980392821,117.77251583876549 L84.88516133758714,118.19837820359926 L82.55693418688315,118.57974833588858 L80.20775272323925,118.91544126910394 L77.83909804298264,119.20432240422424 L75.45251581012968,119.44531171704514 L73.04961379618362,119.6373878614578 L70.63205912246025,119.77959214362463 L68.20157521282641,119.87103234225451 L65.7599384670998,119.91088635070714 L63.30897466768755,119.89840561743917 L60.85055513430444,119.83291836233606 L58.386592643777476,119.71383254775456 L55.91903713398659,119.54063858461627 L53.449871212878634,119.31291175563076 L50.98110549519862,119.03031433967028 L48.514773791082746,118.69259742344659 L46.05292817193168,118.2996023889272 L43.59763394000862,117.85126206734975 L41.15096452897177,117.34760155321612 L38.71499636304003,116.78873867424343 L36.2918037027037,116.17488411588387 L33.88345350481433,115.50634120166335 L31.492000324534843,114.78350533320152 L29.119481285995903,114.00686309632205 L26.767911147604735,113.1769910421192 L24.439277486800677,112.29455415417398 L22.13553602766305,111.36030401529116 L19.858606133177602,110.37507668912416 L17.6103664821745,109.33979033385148 L15.392650949001336,108.2554425666414 L13.207244701904017,107.12310759898087 L11.055880533902467,105.94393316403402 L8.940235437679092,104.71913725803014 L6.861927433700004,103.45000471825777 L4.822512658470544,102.13788366055867 L2.8234827175322152,100.78418179927996 L0.8662623055667495,99.39036267246208 L-1.0477929062010105,97.95794179462317 L-2.9173981171717287,96.48848275886891 L-4.741340982928904,94.98359330921768 L-6.518482944797086,93.44492140301415 L-8.24776031065386,91.87415128212302 L-9.92818509570705,90.27299957027881 L-11.558845633227065,88.64321141253436 L-13.138906966304205,86.98655667122983 L-14.667611032586535,85.304826191319 L-16.14427665463583,83.5998281462609 L-17.568299349026745,81.87338447404446 L-18.939150967604263,80.12732741127434 L-20.25637918441936,78.36349613164015 L-21.51960684178769,76.58373349352945 L-22.728531168673726,74.78988290005353 L-23.882922884205982,72.9837852733458 L-24.98262519859145,71.16727614368301 L-26.02755272303301,69.34218285278354 L-27.017690299485025,67.51032186956019 L-27.95309176021732,65.67349621566382 L-28.833878626222884,63.83349299734786 L-29.66023875251244,61.99208103952125 L-30.432424927309967,60.1510086173395 L-31.150753431112832,58.31200128030957 L-31.81560256053021,56.476759763655906 L-32.42741112077286,54.646957981602526 L-32.98667688966296,52.82424109727313 L-33.49395505506786,51.01022366407963 L-33.94985662676015,49.206487833763845 L-34.35504682287535,47.41458162665373 L-34.7102434303915,45.63601726019505 L-35.016215138401805,43.872269532403266 L-35.273779842400415,42.12477425753491 L-35.48380291736032,40.39492675199406 L-35.64719545705461,38.6840803692466 L-35.76491247686377,36.99354508330356 L-35.837951077222556,35.324586121135184 L-35.8673485648892,33.67842264517623 L-35.854180529369415,32.05622648786621 L-35.7995588720878,30.45912094091858 L-35.70462978627148,28.888179602716832 L-35.570571685980354,27.344425287880966 L-35.39859308328562,25.828829003621934 L-35.1899304132414,24.34230899798959 L-34.945845807014365,22.88572988551789 L-34.66762481430973,21.45990185606624 L-34.35657407705156,20.065579972841363 L-34.01401895712482,18.70346356565878 L-33.64130112184907,17.374195725459174 L-33.23977609171726,16.078362905934853 L-32.81081075577859,14.816494637844244 L-32.35578086086136,13.589063361202108 L-31.87606848159902,12.396484380033087 L-31.37305947893418,11.23911594377526 L-30.848140955412305,10.117259458724845 L-30.302698716128816,9.031159832134222 L-29.7381147446537,7.981005950725063 L-29.155764703613926,6.96693129446831 L-28.55701546985921,5.9890146855259445 L-27.94322271427174,5.0472811712631085 L-27.31572853629396,4.141703039235097 L-26.675859163147862,3.272200961047872 L-26.02492272349815,2.4386452609988964 L-25.36420710498126,1.640857304440516 L-24.694977904578195,0.8786109998840743 L-24.018476480266287,0.1516344079948908 L-23.33591811174756,-0.5403885501750665 L-22.648490277327284,-1.1978162940979473 L-21.95735105322126,-1.8210477028439698 L-21.26362764071081,-2.410520161890389 L-20.568415025655867,-2.9667075476837965 L-19.872774773929848,-3.490118160324613 L-19.17773396537015,-3.981292614984568 L-18.48428426785344,-4.440801702804833 L-17.79338115212437,-4.8692442320572695 L-17.10594324703638,-5.26724486028283 L-16.422851833916667,-5.635451927953767 L-15.744950477856747,-5.974535303950631 L-15.073044792861623,-6.285184252797961 L-14.407902336974558,-6.568105333182302 L-13.750252632737585,-6.824020336779398 L-13.100787307655423,-7.0536642758654295 L-12.460160348707802,-7.257783427573571 L-11.828988464405427,-7.437133442009866 L-11.207851547409433,-7.59247752074927 L-10.597293230334941,-7.724584671524468 L-9.997821527036024,-7.8342280441860055 L-9.409909551419815,-7.922183352276932 L-8.83399630566089,-7.989227383823021 L-8.27048752957964,-8.03613660420848 L-7.719756602906756,-8.0636858532867 L-7.182145492176545,-8.072647138174744 L-6.657965734067744,-8.063788522501682 L-6.14749944714157,-8.03787311223519 L-5.651000364101236,-7.995658137588123 L-5.1686948769165895,-7.937894129928338 L-4.700783087410599,-7.865324192063213 L-4.247439856190738,-7.778683359763761 L-3.8088158431206978,-7.6786980519173085 L-3.385038532859056,-7.566085606265091 L-2.9762132393445597,-7.441553897282461 L-2.5824240834693057,-7.305801032396914 L-2.2037349385533673,-7.159515122411136 L-1.8401903386148604,-7.003374121703587 L-1.4918163448096777,-6.838045733512502 L-1.1586213657981546,-6.66418737537154 L-0.8405969281793659,-6.482446199552811 L-0.5377183935125913,-6.293459163182035 L-0.2499456188231477,-6.097853142518403 L0.022776442135693742,-5.896245085740617 L0.2805171992218334,-5.689242198436688 L0.5233599498337185,-5.477442155869511 L0.7514014680482717,-5.261433335971134 L0.9647516602218502,-5.041795066906644 L1.1635332879340865,-4.81909788294422 L1.34788175878154,-4.593903782264817 L1.517944985144453,-4.366766480250249 L1.6738833106587947,-4.138231651689324 L1.8158695037172663,-3.9088371552531385 L1.944088816901342,-3.679113233497958 L2.058739110802236,-3.449582681570746 L2.1600310402203036,-3.22076097771253 L2.248188300234858,-2.9931563685825324 L2.3234479291082835,-2.767269902365797 L2.3860606644215068,-2.5435954025834917 L2.4362913482335102,-2.322619375495691 L2.4744193764055353,-2.104820843989984 L2.5007391865371176,-1.8906711008775687 L2.5155607782097036,-1.6806333745900304 L2.5192102584386475,-1.4751624003893369 L2.5120304043760484,-1.2747038903776513 L2.4943812344020273,-1.0796938958389148 L2.466640577773944,-0.8905580557674284 L2.429204631989819,-0.7077107258576518 L2.382488495951435,-0.5315539827502107 L2.3269266659000323,-0.3624764989813798 L2.262973479945117,-0.20085228486348683 L2.1911034958247058,-0.047039294469215065 L2.111811785333117,0.09862210599473542 L2.0256141276520623,0.23581080783009156 L1.9330470826286046,0.36422676639568863 L1.834667923895637,0.48359294170242606 L1.7310544106404109,0.5936573682026278 L1.6228043758371768,0.6941953466615871 L1.5105351078942135,0.7850117484614714 L1.3948825019785147,0.8659434198553981 L1.2764999568096584,0.936861670557505 L1.156056992514408,0.9976748276110072 L1.0342375652682847,1.0483308317311923 L0.911738054975956,1.0888198492670256 L0.7892649032395695,1.1191768685938257 L0.6675318804023789,1.1394842451544775 L0.5472569626182633,1.1498741545497069 L0.42915880277294605,1.1505309080901895 L0.3139527827550239,1.141693080131006 L0.20234663913367967,1.1236553913946636 L0.09503565983771978,1.0967702874623058 L-0.007302543977658615,1.0614491467958658 L-0.10401367896102443,1.0181630482020125 L-0.19447280264790834,0.9674430237388663 L-0.278090717581307,0.9098797199004878 L-0.3543206840090818,0.846122387731981 L-0.42266539598801955,0.7768771215831123 L-0.48268415178921487,0.7029042667987824 L-0.5340001344267478,0.6250149190775574 L-0.5763077020607454,0.5440664428455761 L-0.6093795711617531,0.4609569431452485 L-0.6330737579443451,0.37661863558156483 L-0.6473401260463447,0.29201007217116626 L-0.6522263711992764,0.20810719783600007 L-0.6478832572667272,0.12589323308870348 L-0.6345689031848849,0.04634740343274757 L-0.6126519078036097,-0.02956743467578349 L-0.5826130902967463,-0.10091818770308691 L-0.5450456186877091,-0.1668158170204208 L-0.5006532992357222,-0.22643036499627556 L-0.45024680613929036,-0.27900650522352066 L-0.3947376454862592,-0.32387935791285827 L-0.33512967089200174,-0.3604902604512574 L-0.272508002057549,-0.3884021313566848 L-0.20802524270098388,-0.40731401503015263 L-0.14288495195390283,-0.41707434687802447 L-0.07832239408156738,-0.4176924360162957 L-0.015582675627427989,-0.40934762875465935 L0.04410352335202106,-0.3923955936492405 L0.09954630720437763,-0.367371161705222 L0.14962457393457385,-0.33498716714876764 L0.1933151084463134,-0.2961287690340555 L0.2297220579752377,-0.25184279572886226 L0.2581059532811594,-0.20332174666324931 L0.27791131035280614,-0.15188221171766259 L0.2887917316917026,-0.09893763044050274 L0.2906313322656331,-0.045965511824960004 L0.28356125267683296,0.005530530214485907 L0.26797000159913864,0.05406330326809439 L0.2445064022311385,0.09820820796446128 L0.21407401447865482,0.13665182509984675 L0.17781607614907102,0.16824137010365803 L0.13709026123302692,0.1920331578401715 L0.09343289722289683,0.20733794180330278 L0.04851271816039571,0.21376076597712768 L0.004074752096329348,0.21123282135050658 L-0.038124459568791735,0.20003276061430597 L-0.0763884564210855,0.18079502274582637 L-0.10915672532510712,0.15450298123656125 L-0.1350816172028999,0.12246517869482432 L-0.1531024685164084,0.0862735621376487 L-0.16251256990520346,0.047743492212930505 L-0.1630142897028577,0.008836355787309458 L-0.1547575708704585,-0.0284331638734443 L-0.13835724405370797,-0.062101762336965294 L-0.11488519762235683,-0.09036935183436867 L-0.08583446325138766,-0.11171194996356348 L-0.05305373412949166,-0.12498835896633409 L-0.01865271936341628,-0.12953254930579305 L0.015119004099460653,-0.1252233106656604 L0.046014460438954075,-0.11252300911672819 L0.07194526650962985,-0.09247832329828043 L0.0911408582896911,-0.06667771821375368 L0.1022985777113945,-0.0371631835848234 L0.10471087259099932,-0.006297359533022018" class="nyquist-line"/>

            <text x="0" y="255" class="axis-label">実部</text>
            <text x="-260" y="0" class="axis-label" transform="rotate(-90, -260, 0)">虚部</text>
        </g>

        <!-- 凡例 -->
        <g transform="translate(50, 520)">
            <rect x="0" y="0" width="200" height="70" fill="white" stroke="black" stroke-width="1"/>
            <text x="10" y="20" class="axis-label">凡例</text>
            <line x1="10" y1="30" x2="30" y2="30" class="nyquist-line"/>
            <text x="35" y="35" font="10px Arial">Nyquist軌跡</text>
            <circle cx="20" cy="45" r="3" class="critical-point"/>
            <text x="35" y="50" font="10px Arial">臨界点(-1,0)</text>
            <circle cx="20" cy="58" r="8" class="unit-circle"/>
            <text x="35" y="62" font="10px Arial">単位円</text>
        </g>

        </svg>